<svg width="1920" height="400" viewBox="0 0 1920 400" fill="none" xmlns="http://www.w3.org/2000/svg">
  <!-- First wave path with more natural curves to match the reference image -->
  <path d="M0 200
    C50 180 100 160 150 170
    C200 180 250 220 300 210
    C350 200 400 150 450 130
    C500 110 550 100 600 120
    C650 140 700 180 750 190
    C800 200 850 190 900 170
    C950 150 1000 130 1050 140
    C1100 150 1150 180 1200 200
    C1250 220 1300 230 1350 220
    C1400 210 1450 180 1500 160
    C1550 140 1600 130 1650 150
    C1700 170 1750 210 1800 220
    C1850 230 1900 210 1950 190
    L1920 400 L0 400 Z" 
    fill="white" />
    
  <!-- Second wave path with different curve to create more organic look -->
  <path d="M0 180
    C50 200 100 230 150 220
    C200 210 250 170 300 160
    C350 150 400 170 450 190
    C500 210 550 220 600 200
    C650 180 700 150 750 140
    C800 130 850 150 900 180
    C950 210 1000 230 1050 220
    C1100 210 1150 170 1200 150
    C1250 130 1300 120 1350 140
    C1400 160 1450 200 1500 220
    C1550 240 1600 230 1650 210
    C1700 190 1750 170 1800 160
    C1850 150 1900 170 1950 190
    L1920 0 L0 0 Z" 
    fill="white" />
</svg> 